# xmcd
#
# Track frame offsets:
#	150
#	15263
#	27672
#	48515
#	64118
#	79560
#	92927
#	97619
#	113630
#	129986
#	143551
#	159622
#	183111
#	201611
#	215286
#	224566
#
# Disc length: 3258 seconds
#
# Revision: 1
# Processed by: cddbd v1.4PL0 Copyright (c) Steve Scherf et al.
# Submitted via: CDmax 1.8
#
DISCID=d60cb810
DTITLE=Loretta - The swimming pool
DYEAR=2001
DGENRE=Country
TTITLE0=You're a dead girl now
TTITLE1=Lisa Marie
TTITLE2=Being John Cusack
TTITLE3=Mr. Hit
TTITLE4=Hey stupid
TTITLE5=Last plane home
TTITLE6=Space lounge
TTITLE7=My backyard
TTITLE8=Gun glory
TTITLE9=Supergroovy
TTITLE10=Object
TTITLE11=What to do in Coober Pedy
TTITLE12=Blood on the moon
TTITLE13=My solo career
TTITLE14=Sleeping pills
TTITLE15=Tell me something happy before I go to sleep
EXTD=
EXTT0=
EXTT1=
EXTT2=
EXTT3=
EXTT4=
EXTT5=
EXTT6=
EXTT7=
EXTT8=
EXTT9=
EXTT10=
EXTT11=
EXTT12=
EXTT13=
EXTT14=
EXTT15=
PLAYORDER=
